<?xml version="1.0" encoding="utf-8"?>
<!-- Generator: Adobe Illustrator 14.0.0, SVG Export Plug-In . SVG Version: 6.00 Build 43363)  -->
<!DOCTYPE svg PUBLIC "-//W3C//DTD SVG 1.1//EN" "http://www.w3.org/Graphics/SVG/1.1/DTD/svg11.dtd">
<svg version="1.1" id="Layer_1" xmlns="http://www.w3.org/2000/svg" xmlns:xlink="http://www.w3.org/1999/xlink" x="0px" y="0px"
	 viewBox="0 0 128 128" xml:space="preserve">
<g>
	<rect x="0.5" y="1.5" fill="#FFFFFF" width="128" height="128"/>
	<path d="M61.729,104.072c1.13-2.849,1.609-5.646,2.208-12.864c0.162-1.938,0.266-3.552,0.234-3.583s-0.234,0.438-0.448,1.047
		c-0.599,1.692-1.667,3.822-2.651,5.302c-1.086,1.63-3.219,3.808-4.698,4.797c-1.557,1.042-1.578,1.042-1.453,0.281
		c0.279-1.661,1.458-4.286,2.74-6.083c0.787-1.109,2.969-3.391,4.268-4.459c1.958-1.619,1.961-1.641,0.07-0.422
		c-5.672,3.646-11.38,5.995-16.917,6.953c-2.245,0.391-7.451,0.631-8.359,0.391l-0.463-0.125l1.102-0.864
		c5.346-4.224,11.95-6.646,20.442-7.5c1.146-0.114,2.308-0.234,2.581-0.266c0.273-0.026-1.164-0.062-3.195-0.073
		c-12.492-0.078-21.771-1.927-30.083-5.989c-3.164-1.542-8.042-4.573-7.776-4.823c0.062-0.062,1.07-0.229,2.242-0.369
		c3.237-0.396,10.104-0.365,13.198,0.057c8.646,1.172,16.924,4.062,26.713,9.318c0.958,0.51,1.74,0.906,1.74,0.875
		c0-0.037-0.623-0.495-1.385-1.016c-1.904-1.318-5.74-4.24-7.659-5.834c-10.156-8.447-16.26-17.4-18.898-27.718
		c-0.229-0.896-0.396-1.651-0.37-1.677c0.154-0.153,3.826,1.982,6.245,3.633c4.531,3.091,9.115,7.521,12.373,11.951
		c2.763,3.76,5.068,7.698,7.198,12.307c1,2.161,2.841,6.614,3.201,7.734c0.094,0.292,0.237,0.573,0.323,0.625
		c0.086,0.058,0.112,0.031,0.058-0.058c-0.339-0.547-2.581-10.5-3.269-14.505c-2.727-15.891-1.94-29.273,2.453-41.864
		c0.951-2.727,1.023-2.865,1.19-2.305c0.044,0.135,0.375,1.078,0.739,2.091c2.036,5.693,3.364,12.068,3.911,18.802
		c0.198,2.471,0.198,9.234-0.005,12.062c-0.474,6.651-1.734,14.167-3.75,22.354c-0.425,1.714-0.755,3.136-0.734,3.156
		c0.019,0.016,0.242-0.526,0.5-1.208c1.995-5.323,5.036-11.547,7.578-15.5c2.547-3.961,4.62-6.542,7.745-9.656
		c2.505-2.498,4.947-4.511,7.75-6.386c2.13-1.427,5.442-3.325,5.567-3.198c0.141,0.138-0.38,2.141-1.172,4.549
		C89.333,64.578,82.614,73.078,70.567,82.15c-1.15,0.865-2.713,2.006-3.477,2.531c-1.786,1.229-1.911,1.365-0.604,0.662
		c7.033-3.792,12.414-6.12,18.091-7.828c3.188-0.959,6.536-1.656,10.125-2.109c2.786-0.35,9.781-0.344,12.724,0.016
		c1.172,0.141,2.183,0.307,2.25,0.375c0.062,0.062-0.697,0.656-1.703,1.322c-9.838,6.531-20.734,9.391-36.161,9.484
		c-2.031,0.011-3.469,0.047-3.198,0.073c0.276,0.031,1.438,0.151,2.589,0.266c8.495,0.854,15.094,3.276,20.438,7.495
		c1.073,0.849,1.089,0.875,0.714,0.958c-0.662,0.151-4.438,0.136-6.084-0.026c-3.438-0.338-7.104-1.271-10.562-2.688
		c-2.875-1.177-5.688-2.697-9.859-5.317c-0.562-0.354-0.372-0.172,0.998,0.948c1.669,1.369,3.872,3.719,4.81,5.13
		c0.448,0.677,1.062,1.786,1.364,2.474c0.526,1.198,1.198,3.453,1.104,3.719c-0.094,0.271-2.521-1.536-3.886-2.9
		c-2.146-2.141-3.844-4.906-4.963-8.062c-0.214-0.609-0.417-1.078-0.448-1.047c-0.088,0.088,0.511,7.041,0.817,9.458
		c0.396,3.109,0.896,5.271,1.62,6.989c0.094,0.229-0.089,0.25-2.766,0.25C61.826,104.322,61.638,104.302,61.729,104.072
		L61.729,104.072z M61.729,104.072"/>
</g>
</svg>
